# xmcd
#
# Track frame offsets:
#	150
#	13854
#	27356
#	43281
#	55957
#	68335
#	76070
#	87147
#	100176
#	111378
#	124350
#	142030
#	155543
#	168600
#	179732
#	189829
#	198394
#
# Disc length: 2788 seconds
# Revision: 0
# Processed by: cddbd v1.5.2PL0 Copyright (c) Steve Scherf et al.
# Submitted via: dBpowerAMP V12.0
#
DISCID=ed0ae211
DTITLE=Chris Darrow - Artist Proof
DYEAR=1972
DGENRE=Country
TTITLE0=Beware of Time
TTITLE1=Lovers Sleep Abed Tonight
TTITLE2=Shawnee Moon
TTITLE3=Move On Down The Line
TTITLE4=Song For Steven
TTITLE5=Cocaine Lil
TTITLE6=Alligator Man
TTITLE7=Keep On Trying
TTITLE8=New Zoot
TTITLE9=The Show Must Go On
TTITLE10=The Sky Is Not Blue Today
TTITLE11=We Can Both Learn To Say I Love You
TTITLE12=Beware of Time (demo)
TTITLE13=Song For Steven (demo)
TTITLE14=Keep On Trying (demo)
TTITLE15=Move On Down The Line (demo)
TTITLE16=The Sky Is Not Blue Today (demo)
EXTD=
EXTT0=
EXTT1=
EXTT2=
EXTT3=
EXTT4=
EXTT5=
EXTT6=
EXTT7=
EXTT8=
EXTT9=
EXTT10=
EXTT11=
EXTT12=
EXTT13=
EXTT14=
EXTT15=
EXTT16=
PLAYORDER=
